<?xml version="1.0" encoding="utf-8"?>
<!-- Generator: Adobe Illustrator 20.1.0, SVG Export Plug-In . SVG Version: 6.00 Build 0)  -->
<svg version="1.1" id="Layer_1" xmlns="http://www.w3.org/2000/svg" xmlns:xlink="http://www.w3.org/1999/xlink" x="0px" y="0px"
	 viewBox="0 0 648 648" style="enable-background:new 0 0 648 648;" xml:space="preserve">
<style type="text/css">
	
		.st0{fill:#D7EAE6;fill-opacity:0.8;stroke:#555555;stroke-width:1.5;stroke-linecap:round;stroke-linejoin:round;stroke-opacity:0.4;}
	
		.st1{fill:#5CA999;fill-opacity:0.8;stroke:#555555;stroke-width:1.5;stroke-linecap:round;stroke-linejoin:round;stroke-opacity:0.4;}
	
		.st2{fill:#93C5BB;fill-opacity:0.8;stroke:#555555;stroke-width:1.5;stroke-linecap:round;stroke-linejoin:round;stroke-opacity:0.4;}
	
		.st3{fill:#FFFFFF;fill-opacity:0.8;stroke:#555555;stroke-width:1.5;stroke-linecap:round;stroke-linejoin:round;stroke-opacity:0.4;}
	
		.st4{fill:#EAF4F2;fill-opacity:0.8;stroke:#555555;stroke-width:1.5;stroke-linecap:round;stroke-linejoin:round;stroke-opacity:0.4;}
	
		.st5{fill:#81BCB0;fill-opacity:0.8;stroke:#555555;stroke-width:1.5;stroke-linecap:round;stroke-linejoin:round;stroke-opacity:0.4;}
	
		.st6{fill:#BDDCD5;fill-opacity:0.8;stroke:#555555;stroke-width:1.5;stroke-linecap:round;stroke-linejoin:round;stroke-opacity:0.4;}
	
		.st7{fill:#DCECE9;fill-opacity:0.8;stroke:#555555;stroke-width:1.5;stroke-linecap:round;stroke-linejoin:round;stroke-opacity:0.4;}
	
		.st8{fill:#F8FBFB;fill-opacity:0.8;stroke:#555555;stroke-width:1.5;stroke-linecap:round;stroke-linejoin:round;stroke-opacity:0.4;}
	
		.st9{fill:#9BCAC0;fill-opacity:0.8;stroke:#555555;stroke-width:1.5;stroke-linecap:round;stroke-linejoin:round;stroke-opacity:0.4;}
	
		.st10{fill:#EFF7F5;fill-opacity:0.8;stroke:#555555;stroke-width:1.5;stroke-linecap:round;stroke-linejoin:round;stroke-opacity:0.4;}
	
		.st11{fill:#C4C4C4;fill-opacity:0.8;stroke:#555555;stroke-width:1.5;stroke-linecap:round;stroke-linejoin:round;stroke-opacity:0.4;}
	
		.st12{fill:#50A291;fill-opacity:0.8;stroke:#555555;stroke-width:1.5;stroke-linecap:round;stroke-linejoin:round;stroke-opacity:0.4;}
	
		.st13{fill:#E8F3F1;fill-opacity:0.8;stroke:#555555;stroke-width:1.5;stroke-linecap:round;stroke-linejoin:round;stroke-opacity:0.4;}
	
		.st14{fill:#EEF6F4;fill-opacity:0.8;stroke:#555555;stroke-width:1.5;stroke-linecap:round;stroke-linejoin:round;stroke-opacity:0.4;}
	
		.st15{fill:#F5F5F5;fill-opacity:0.8;stroke:#555555;stroke-width:1.5;stroke-linecap:round;stroke-linejoin:round;stroke-opacity:0.4;}
	
		.st16{fill:#DEEDEA;fill-opacity:0.8;stroke:#555555;stroke-width:1.5;stroke-linecap:round;stroke-linejoin:round;stroke-opacity:0.4;}
	
		.st17{fill:#B6D8D1;fill-opacity:0.8;stroke:#555555;stroke-width:1.5;stroke-linecap:round;stroke-linejoin:round;stroke-opacity:0.4;}
	
		.st18{fill:#88C0B4;fill-opacity:0.8;stroke:#555555;stroke-width:1.5;stroke-linecap:round;stroke-linejoin:round;stroke-opacity:0.4;}
	
		.st19{fill:#EDEDED;fill-opacity:0.8;stroke:#555555;stroke-width:1.5;stroke-linecap:round;stroke-linejoin:round;stroke-opacity:0.4;}
	
		.st20{fill:#E7F2F0;fill-opacity:0.8;stroke:#555555;stroke-width:1.5;stroke-linecap:round;stroke-linejoin:round;stroke-opacity:0.4;}
	
		.st21{fill:#E5F1EF;fill-opacity:0.8;stroke:#555555;stroke-width:1.5;stroke-linecap:round;stroke-linejoin:round;stroke-opacity:0.4;}
	
		.st22{fill:#F1F8F6;fill-opacity:0.8;stroke:#555555;stroke-width:1.5;stroke-linecap:round;stroke-linejoin:round;stroke-opacity:0.4;}
	
		.st23{fill:#ECF5F3;fill-opacity:0.8;stroke:#555555;stroke-width:1.5;stroke-linecap:round;stroke-linejoin:round;stroke-opacity:0.4;}
	
		.st24{fill:#9AC9BF;fill-opacity:0.8;stroke:#555555;stroke-width:1.5;stroke-linecap:round;stroke-linejoin:round;stroke-opacity:0.4;}
	
		.st25{fill:#6E6E6E;fill-opacity:0.8;stroke:#555555;stroke-width:1.5;stroke-linecap:round;stroke-linejoin:round;stroke-opacity:0.4;}
	
		.st26{fill:#C0DED7;fill-opacity:0.8;stroke:#555555;stroke-width:1.5;stroke-linecap:round;stroke-linejoin:round;stroke-opacity:0.4;}
	
		.st27{fill:#919191;fill-opacity:0.8;stroke:#555555;stroke-width:1.5;stroke-linecap:round;stroke-linejoin:round;stroke-opacity:0.4;}
	
		.st28{fill:#7CB9AD;fill-opacity:0.8;stroke:#555555;stroke-width:1.5;stroke-linecap:round;stroke-linejoin:round;stroke-opacity:0.4;}
	
		.st29{fill:#C7E1DC;fill-opacity:0.8;stroke:#555555;stroke-width:1.5;stroke-linecap:round;stroke-linejoin:round;stroke-opacity:0.4;}
	
		.st30{fill:#DAEBE8;fill-opacity:0.8;stroke:#555555;stroke-width:1.5;stroke-linecap:round;stroke-linejoin:round;stroke-opacity:0.4;}
	
		.st31{fill:#C5E0DB;fill-opacity:0.8;stroke:#555555;stroke-width:1.5;stroke-linecap:round;stroke-linejoin:round;stroke-opacity:0.4;}
	
		.st32{fill:#5EA99A;fill-opacity:0.8;stroke:#555555;stroke-width:1.5;stroke-linecap:round;stroke-linejoin:round;stroke-opacity:0.4;}
	
		.st33{fill:#E1EFEC;fill-opacity:0.8;stroke:#555555;stroke-width:1.5;stroke-linecap:round;stroke-linejoin:round;stroke-opacity:0.4;}
	
		.st34{fill:#8FC3B9;fill-opacity:0.8;stroke:#555555;stroke-width:1.5;stroke-linecap:round;stroke-linejoin:round;stroke-opacity:0.4;}
	
		.st35{fill:#EBEBEB;fill-opacity:0.8;stroke:#555555;stroke-width:1.5;stroke-linecap:round;stroke-linejoin:round;stroke-opacity:0.4;}
	.st36{fill-opacity:0.8;stroke:#555555;stroke-width:1.5;stroke-linecap:round;stroke-linejoin:round;stroke-opacity:0.4;}
	
		.st37{fill:#F2F2F2;fill-opacity:0.8;stroke:#555555;stroke-width:1.5;stroke-linecap:round;stroke-linejoin:round;stroke-opacity:0.4;}
	
		.st38{fill:#BEDDD6;fill-opacity:0.8;stroke:#555555;stroke-width:1.5;stroke-linecap:round;stroke-linejoin:round;stroke-opacity:0.4;}
	
		.st39{fill:#E3E3E3;fill-opacity:0.8;stroke:#555555;stroke-width:1.5;stroke-linecap:round;stroke-linejoin:round;stroke-opacity:0.4;}
	
		.st40{fill:#9E9E9E;fill-opacity:0.8;stroke:#555555;stroke-width:1.5;stroke-linecap:round;stroke-linejoin:round;stroke-opacity:0.4;}
	
		.st41{fill:#C4DFDA;fill-opacity:0.8;stroke:#555555;stroke-width:1.5;stroke-linecap:round;stroke-linejoin:round;stroke-opacity:0.4;}
	
		.st42{fill:#B2D6CF;fill-opacity:0.8;stroke:#555555;stroke-width:1.5;stroke-linecap:round;stroke-linejoin:round;stroke-opacity:0.4;}
	
		.st43{fill:#FCFDFD;fill-opacity:0.8;stroke:#555555;stroke-width:1.5;stroke-linecap:round;stroke-linejoin:round;stroke-opacity:0.4;}
	
		.st44{fill:#B4D7D0;fill-opacity:0.8;stroke:#555555;stroke-width:1.5;stroke-linecap:round;stroke-linejoin:round;stroke-opacity:0.4;}
	
		.st45{fill:#D4D4D4;fill-opacity:0.8;stroke:#555555;stroke-width:1.5;stroke-linecap:round;stroke-linejoin:round;stroke-opacity:0.4;}
	
		.st46{fill:#85BEB2;fill-opacity:0.8;stroke:#555555;stroke-width:1.5;stroke-linecap:round;stroke-linejoin:round;stroke-opacity:0.4;}
	
		.st47{fill:#787878;fill-opacity:0.8;stroke:#555555;stroke-width:1.5;stroke-linecap:round;stroke-linejoin:round;stroke-opacity:0.4;}
	
		.st48{fill:#7EBAAE;fill-opacity:0.8;stroke:#555555;stroke-width:1.5;stroke-linecap:round;stroke-linejoin:round;stroke-opacity:0.4;}
	
		.st49{fill:#F5F9F8;fill-opacity:0.8;stroke:#555555;stroke-width:1.5;stroke-linecap:round;stroke-linejoin:round;stroke-opacity:0.4;}
	
		.st50{fill:#808080;fill-opacity:0.8;stroke:#555555;stroke-width:1.5;stroke-linecap:round;stroke-linejoin:round;stroke-opacity:0.4;}
	
		.st51{fill:#F7F7F7;fill-opacity:0.8;stroke:#555555;stroke-width:1.5;stroke-linecap:round;stroke-linejoin:round;stroke-opacity:0.4;}
	
		.st52{fill:#F0F0F0;fill-opacity:0.8;stroke:#555555;stroke-width:1.5;stroke-linecap:round;stroke-linejoin:round;stroke-opacity:0.4;}
	
		.st53{fill:#7FBBAF;fill-opacity:0.8;stroke:#555555;stroke-width:1.5;stroke-linecap:round;stroke-linejoin:round;stroke-opacity:0.4;}
	
		.st54{fill:#FAFAFA;fill-opacity:0.8;stroke:#555555;stroke-width:1.5;stroke-linecap:round;stroke-linejoin:round;stroke-opacity:0.4;}
	
		.st55{fill:#A2CEC5;fill-opacity:0.8;stroke:#555555;stroke-width:1.5;stroke-linecap:round;stroke-linejoin:round;stroke-opacity:0.4;}
	
		.st56{fill:#A8A8A8;fill-opacity:0.8;stroke:#555555;stroke-width:1.5;stroke-linecap:round;stroke-linejoin:round;stroke-opacity:0.4;}
	
		.st57{fill:#D9D9D9;fill-opacity:0.8;stroke:#555555;stroke-width:1.5;stroke-linecap:round;stroke-linejoin:round;stroke-opacity:0.4;}
	
		.st58{fill:#9DCBC1;fill-opacity:0.8;stroke:#555555;stroke-width:1.5;stroke-linecap:round;stroke-linejoin:round;stroke-opacity:0.4;}
	
		.st59{fill:#6B6B6B;fill-opacity:0.8;stroke:#555555;stroke-width:1.5;stroke-linecap:round;stroke-linejoin:round;stroke-opacity:0.4;}
	
		.st60{fill:#DEDEDE;fill-opacity:0.8;stroke:#555555;stroke-width:1.5;stroke-linecap:round;stroke-linejoin:round;stroke-opacity:0.4;}
	
		.st61{fill:#ABD2CA;fill-opacity:0.8;stroke:#555555;stroke-width:1.5;stroke-linecap:round;stroke-linejoin:round;stroke-opacity:0.4;}
	
		.st62{fill:#75B6A8;fill-opacity:0.8;stroke:#555555;stroke-width:1.5;stroke-linecap:round;stroke-linejoin:round;stroke-opacity:0.4;}
	
		.st63{fill:#CCE4DF;fill-opacity:0.8;stroke:#555555;stroke-width:1.5;stroke-linecap:round;stroke-linejoin:round;stroke-opacity:0.4;}
	
		.st64{fill:#E0EEEB;fill-opacity:0.8;stroke:#555555;stroke-width:1.5;stroke-linecap:round;stroke-linejoin:round;stroke-opacity:0.4;}
</style>
<g>
	<path class="st0" d="M371,374l-20,1l-1-8l5-4l-1-1h17V374z"/>
	<path class="st1" d="M445,342l-13,9l-11,10v15h-6l-9-3l-3-3h-5l-2,4h-8v-10h5v-2h-8v-4h-14v-5l1,2h32l4-8h3l2-8l5,3H445z"/>
	<path class="st2" d="M385,191l-11,3l-19,15l-27,13v-67l4-6l-6-6l-2-9l47,1l-12,18h10l1,24h15v7V191z"/>
	<path class="st3" d="M343,134h-29v-3l11-1l2,2l4-2l8,1v2L343,134z"/>
	<path class="st4" d="M357,334h-11v-6l-3-8l1-15h13v14V334z"/>
	<path class="st5" d="M388,374h-17v-16h14v4h8v2h-5V374z"/>
	<path class="st6" d="M300,419h-8l1,7h-14v-21h22l-1,7V419z"/>
	<path class="st7" d="M371,225h-17v8l-12,1l-1-12l-8-2l22-11l16-13v24V225z"/>
	<path class="st8" d="M343,431l-2,3l-12-1v-7h-11v-14h25v18V431z"/>
	<path class="st9" d="M229,375h-5l-7,17l-6-2l-1,2l-7-1l2-16l-17-8v-2l10-3l-1-1h2l2-6h28v9V375z"/>
	<path class="st10" d="M410,404h-8v-3l-14-2v-14l9,1l10-5v-2l11-1v18L410,404z"/>
	<path class="st11" d="M279,348h-22v7h-3l-6-5l5-4v-10h-6v-2h32V348z"/>
	<path class="st12" d="M385,355v-22h20l8,6l-2,8h-3l-4,8h-14H385z"/>
	<path class="st13" d="M293,440l1-5l2-2h5l-1-7h4v9h3v5H293z"/>
	<path class="st14" d="M279,375h-28v-12h3v-8h7v4h4v2h9v-4h3v-2h2v9V375z"/>
	<path class="st15" d="M229,286v11h-3l2,1l1,8h-36l-8-6v-9h28v-5h2H229z"/>
	<path class="st16" d="M357,305h-13l-4-11v-17h17v17V305z"/>
	<path class="st17" d="M342,334h-28v-32h2l17,17l6,9L342,334z"/>
	<path class="st18" d="M372,504h-15v-28h15v11V504z"/>
	<path class="st19" d="M318,412v7h-18l1-14h13v-4h4v7V412z"/>
	<path class="st20" d="M414,430h-15l-3,2l-4-4l1-3l3-2v-4h-13l1-9h2l2-4l5-2l1-4h8v4h8v5l4,7l3,10l-1,3L414,430z"/>
	<path class="st21" d="M279,302v10h-22v8h-28v-14l13-1l1-3h34H279z"/>
	<path class="st22" d="M409,475l-6,6l-1,12l-10,17l-11,4l-1-10l6-7v-22h19H409z"/>
	<path class="st10" d="M371,233l-17,1v-9h17V233z"/>
	<path class="st23" d="M393,429l-3,3l-2-1l-2,2h-15v-21h13v4l-2,3h14v4l-3,2l-1,3L393,429z"/>
	<path class="st3" d="M269,375v2h-11v-2H269z"/>
	<path class="st24" d="M392,301l-4,4h-31v-28l18-2l17,1v23V301z"/>
	<path class="st23" d="M232,335l-5,1l-3-2l-24-1l-21,1l-6-4l-14-4l9-24v-8l6,2l4-1l6,3l4,5l27,17l14,13L232,335z"/>
	<path class="st25" d="M457,323h-11l-9-6l-1-4l9-8v-14l3-4l3-1l-4-11l3,1l8-4h14l1,7l12-2l-6,11L457,323z"/>
	<path class="st26" d="M354,362h-35l-2-1v-2h-3v-25h28l12,27V362z"/>
	<path class="st27" d="M445,258l-18,1v-12l-9,2l-2,4l-2-1l1-2l-3-5l4-4l-2-1v-6l7-2l1-3l-1-2l-2,1l-7-3l-1,1l10-7l6,14l8,1l8,9l2,13
		V258z"/>
	<path class="st28" d="M295,362h-16v-7l10-1v-4h4v-2h7v7h-5V362z"/>
	<path class="st29" d="M396,319h-25v-15l17,1l3-4l1,4h7l1,11L396,319z"/>
	<path class="st6" d="M472,272l-9,1l-10-6l-8-9l-2-15l-8-9l-8-1l-6-14l-5,3l-1-6l-5,1l-5-2h-8l-4,4l1,6l-2-5h-21v-24l5-3l16-2l9-3
		l1-18l-2-1v-22l-6-2h-7l1-3l-2-4v-11l10,12v-2l7,2l15,7l15,18l4,11l32-11l11-3l2,1l-5,3l-36,11l-3,4l7,11h3l-1,9l7,5v2l3,3v4l8,11
		v3l-5,6l5,10l2,2l2-1l1,2l1,11L472,272z"/>
	<path class="st30" d="M248,350l-16-15l15-1v2h6v10L248,350z"/>
	<path class="st31" d="M229,333l-10-10l-26-17h36v14V333z"/>
	<path class="st32" d="M386,127l-1,3l3,12l-1,3h7l6,2v21l2,2v15l-1,3l-9,3h-7v-14h-15l-1-24h-10l12-18l-28-1h5l2-11l-3-3l5-5l-3-6
		l-14-9l-6-1l-1-4h16l11,4l8,11l8,4h4l6-3l-11-3l5-2l-2-3l1-2l7,6l2,4v4l-5,4l5-1v-6h7l7-7l3,1l8-7l-16,16l-5,7l-1,4V127z M375,112
		h-2l1-1L375,112z"/>
	<path class="st33" d="M424,309l-3,3h-8l-4-2l-3,1h4v2l-11-1v-7h-7v-13l32-1l1,15L424,309z"/>
	<path class="st34" d="M371,276l-31,1v-4l-4-11l-1-21h7v-7h15v28h14V276z"/>
	<path class="st35" d="M314,348h-35v-14h35v9V348z"/>
	<path class="st36" d="M281,477l-14,4l1,2l-2,1v2l-7,3v11l-3,4v5l-4,12v6l-8-3l-10-11l7-6l-2-13l1-5l17-6l14-16L281,477z"/>
	<path class="st37" d="M315,476h-25l-8,3l-11-12l15-20h10l1,6l13,3v5l5,1v13V476z"/>
	<path class="st4" d="M346,334h-4l-9-15l-17-17h23v-18l1,10l4,11l-1,15l3,8V334z"/>
	<path class="st38" d="M384,412h-27v-27h31v14h5l1,5l-5,2l-3,4h-2V412z"/>
	<path class="st39" d="M279,320v-18h21v18H279z"/>
	<path class="st8" d="M414,276h-21l-1-21l10,2h-2l1,2h-3v3h16l1,10L414,276z"/>
	<path class="st40" d="M371,433h-9v-3h-5v-18h14v12V433z"/>
	<path class="st41" d="M251,375h-22v-20h-15v-7l-3-6v-8h13l3,2l5-1l22,20v8h-3V375z"/>
	<path class="st42" d="M351,383l-7,8l-1,21h-25l1-10l-5-1v-26h10v-2h4v-2h3v2h5v2h7l2-4h5l1,11V383z"/>
	<path class="st14" d="M357,430l-14,1v-19h14v9V430z"/>
	<path class="st12" d="M418,378l-11,1v2l-10,5l-26-2v-10h25l2-4h5l3,3l9,3h6v2H418z"/>
	<path class="st43" d="M357,412h-14v-21l8-8h6v23V412z"/>
	<path class="st44" d="M343,490l-12,6h-16l-1-14l1-6l2-1l1-3l-1-11l3-13h2v12h11l3,4h2l5,11V490z"/>
	<path class="st21" d="M342,515v-11h38l1,10l-20,7l-19-5V515z"/>
	<path class="st23" d="M264,302h-21l-1,3l-13,1v-8l-3-1h3v-11l1,2l4-2l1,5h29v7V302z"/>
	<path class="st45" d="M392,276h-21v-14h21V276z"/>
	<path class="st12" d="M372,476h-15v28h-15l1-29l-5-10l1-2l5-3l2-6l2,1l2-2l8,11l5,2l8-2L372,476z"/>
	<path class="st29" d="M314,375h-35v-11h17l-1-2h19V375z"/>
	<path class="st14" d="M314,391h-14v-16h14V391z"/>
	<path class="st44" d="M314,391v14h-35v-14h28H314z"/>
	<path class="st44" d="M427,259l-4,3h-25v-3h3l-1-2h2l-10-2v-7h-7v-14l-14-1v-13h21l2,5l-1-5l4-5h8l5,2l5-1l1,6l-5,4l1-1l3,2h5l2,4
		l-7,3l-1,6l2,1l-4,3v4l4,5l7-6h4V259z"/>
	<path class="st46" d="M371,358v4h-17l-12-28l29-1v20V358z"/>
	<path class="st47" d="M203,391l-2,2l3,4l-17,14l-9-14l7-9l3-21l15,6l2,2l-1,4L203,391z"/>
	<path class="st24" d="M314,334h-35l-2-4l2-1v-9h21v-18h9v-4h2v2l1-2l1,2l1,16V334z"/>
	<path class="st48" d="M351,373l-1-2h-5l-2,4h-7v-2h-5v-2h-3v2h-4v2h-10v-13h40l1,1l-5,4l1,3V373z"/>
	<path class="st49" d="M371,464l-6,2l-7-2l-8-11l-2,2h-3l-1,5l-6,4h-2l-5-5l-9,1v-12h-2l-2-22h11v7l12,1l2-3l7-1h12v3h9v18l4,5l-1,6
		L371,464z"/>
	<path class="st50" d="M257,334l-25,1l-3-2v-13h28V334z"/>
	<path class="st13" d="M214,355h-13l-2,6h-2l1,1l-10,3l-29-39l14,4l6,4h32v7l3,7V355z"/>
	<path class="st51" d="M237,391h-10l-8-2l5-14h13V391z"/>
	<path class="st52" d="M279,334h-22v-22h22v17l-2,1l2,2V334z"/>
	<path class="st30" d="M319,362h-24v-7h5v-7h14v11h3v2h2V362z"/>
	<path class="st53" d="M424,291l-32,1v-16h25l4,3l3,5v3V291z"/>
	<path class="st14" d="M279,364v-2h16l1,2H279z"/>
	<path class="st54" d="M371,262h-14v-28l14-1v24V262z"/>
	<path class="st22" d="M392,262h-21v-29l14,1v14h7v7V262z"/>
	<path class="st55" d="M279,355h-2v2h-3v4h-9v-2h-4v-4h-4v-7h36v2h-4v4h-10V355z"/>
	<path class="st56" d="M462,272h-4l-8,4l-2-1l3,11l-3,1l-3,4v14l-7,7l-2,1l-2-4h-2l-1-2l-7,1v-24l-3-5l-4-3h-3v-14h9l4-3l18-1l8,9
		L462,272z"/>
	<path class="st57" d="M320,448l-34-1l7-7h14v-5h-3v-9h-11l-1-7h26l2,25V448z"/>
	<path class="st53" d="M371,333l-14,1v-29l14-1v15V333z"/>
	<path class="st58" d="M342,504v11l-4-2l-22,10v2l-1-29h16l12-6l-1,9V504z"/>
	<path class="st0" d="M315,525v-2l-24-9l-27,5l-11,9l-1-1v-6l4-12v-5l3-3v-12l6-2l1-3l2-1l-1-2l12-4h2l1,2l8-3h24l1,39V525z"/>
	<path class="st59" d="M457,323l-8,16l-4,3h-27l-12-9l-5-1l-3-3l-2-4v-6l4-3l-1-4l11,1v-2h-4l3-1l4,2h8l3-4l7-1l1,2h2l3,8l9,6H457z"
		/>
	<path class="st21" d="M406,333h-35v-14h24l1,6l5,7L406,333z"/>
	<path class="st38" d="M357,385v-2h-6v-8l20-1v10l-6,1H357z"/>
	<path class="st60" d="M409,475h-14v-8l-2-4l-1,1l-4-4l-2-9l1-2l-6-1v-15h5l2-2l2,1l3-3l3,3l3-2h15l-1,29L409,475z"/>
	<path class="st61" d="M258,391h-21v-16h21v12V391z"/>
	<path class="st62" d="M395,475l-23,1l-1-12l3-2l1-6l-4-5v-18h9l1,15h6l-1,3l2,9h2l5,7V475z"/>
	<path class="st14" d="M300,391h-22l-10-4h-10v-10h11v-2h31V391z"/>
	<path class="st26" d="M385,355h-13l-1-22h14V355z"/>
	<path class="st63" d="M320,448l-3,13l1,11l-2,4l-1-14l-5-1v-5l-13-3l-1-6l19,1H320z"/>
	<path class="st64" d="M380,504h-8v-28l14-1v21l-5,8H380z"/>
</g>
</svg>
